PathFileType	4	(X/Y/Z)	/Users/itak/Documents/Research/Walk-IL/dataset/trc/00501_00183.trc
DataRate	CameraRate	NumFrames	NumMarkers	Units	OrigDataRate	OrigDataStartFrame	OrigNumFrames
100.000000	100.000000	4	53	mm	100.000000	86	695
Frame#	Time	RPSI			LPSI			L3			STRN			T10			C7			CLAV			RBAK			LBAK			LSHO			LUPA			LAEL			LAOL			LWTS			LWPS			LFRA			LIFD			LHPS			LHTS			RSHO			RUPA			RAEL			RAOL			RWTS			RWPS			RFRA			RIFD			RHTS			RHPS			RBHD			LFHD			RFHD			LBHD			LHIP			RHIP			RASI			LASI			LKNE			LTHI			LANK			LTIP			LTOE			LMT1			LMT5			LHEE			RKNE			RTHI			RANK			RTIP			RTOE			RMT1			RMT5			RHEE			
		X1	Y1	Z1	X2	Y2	Z2	X3	Y3	Z3	X4	Y4	Z4	X5	Y5	Z5	X6	Y6	Z6	X7	Y7	Z7	X8	Y8	Z8	X9	Y9	Z9	X10	Y10	Z10	X11	Y11	Z11	X12	Y12	Z12	X13	Y13	Z13	X14	Y14	Z14	X15	Y15	Z15	X16	Y16	Z16	X17	Y17	Z17	X18	Y18	Z18	X19	Y19	Z19	X20	Y20	Z20	X21	Y21	Z21	X22	Y22	Z22	X23	Y23	Z23	X24	Y24	Z24	X25	Y25	Z25	X26	Y26	Z26	X27	Y27	Z27	X28	Y28	Z28	X29	Y29	Z29	X30	Y30	Z30	X31	Y31	Z31	X32	Y32	Z32	X33	Y33	Z33	X34	Y34	Z34	X35	Y35	Z35	X36	Y36	Z36	X37	Y37	Z37	X38	Y38	Z38	X39	Y39	Z39	X40	Y40	Z40	X41	Y41	Z41	X42	Y42	Z42	X43	Y43	Z43	X44	Y44	Z44	X45	Y45	Z45	X46	Y46	Z46	X47	Y47	Z47	X48	Y48	Z48	X49	Y49	Z49	X50	Y50	Z50	X51	Y51	Z51	X52	Y52	Z52	X53	Y53	Z53	

87	0.86	-1130.288208007812	973.8889770507812	-407.71533203125	-1068.954223632812	970.9124755859375	-515.689208984375	-1113.08544921875	1031.581787109375	-471.2104187011719	-909.3040161132812	1204.585815429688	-387.0837707519531	-1130.180908203125	1137.946166992188	-475.1277465820312	-1092.417602539062	1369.212280273438	-459.81494140625	-945.0071411132812	1298.587280273438	-402.8612976074219	-1164.751220703125	1246.925903320312	-395.6963500976562	-1082.090454101562	1314.509033203125	-548.6751708984375	-968.0969848632812	1363.2763671875	-583.9860229492188	-954.9866943359375	1236.272583007812	-643.002685546875	-933.9105224609375	1026.098876953125	-660.2880249023438	-1025.4912109375	1016.658386230469	-623.9661865234375	-860.2518310546875	842.2577514648438	-584.8226318359375	-917.262451171875	803.4533081054688	-649.62939453125	-916.1033325195312	943.737060546875	-652.2559204101562	-860.7783203125	686.1973876953125	-564.8252563476562	-895.3932495117188	749.111083984375	-632.2313232421875	-844.03173828125	763.5541381835938	-594.6836547851562	-1095.126586914062	1367.068725585938	-301.7299194335938	-1129.632080078125	1299.11279296875	-252.7429962158203	-1121.78955078125	1031.465942382812	-204.5213470458984	-1163.351440429688	1012.967041015625	-252.5614166259766	-1005.934875488281	834.3638305664062	-216.7582244873047	-1087.34228515625	808.6751098632812	-183.2149810791016	-1115.7841796875	977.369873046875	-196.1561889648438	-999.2025756835938	674.20556640625	-214.4643096923828	-992.2376098632812	740.5012817382812	-190.6630401611328	-1062.636596679688	735.9708862304688	-178.5324554443359	-1092.495361328125	1529.691528320312	-373.3775939941406	-914.541748046875	1590.654296875	-444.5766296386719	-972.979248046875	1584.8828125	-330.9668273925781	-1033.135375976562	1533.317016601562	-521.422607421875	-917.0177612304688	895.6135864257812	-583.4541625976562	-1091.011596679688	871.5264892578125	-250.1138610839844	-972.9667358398438	914.9210815429688	-262.5780029296875	-866.792724609375	926.944580078125	-480.4929504394531	-951.3375244140625	473.0113220214844	-561.6123046875	-918.21142578125	629.3182983398438	-567.5156860351562	-1050.071655273438	48.29379653930664	-587.1253051757812	-989.6455078125	326.045654296875	-581.448486328125	-900.30810546875	39.67348480224609	-445.1926879882812	-982.2388305664062	46.3171272277832	-452.3394165039062	-946.1644897460938	42.0372314453125	-548.0668334960938	-1118.31396484375	49.89291763305664	-549.0935668945312	-1099.41552734375	486.9292907714844	-269.9408569335938	-1078.041870117188	745.2008666992188	-233.2752380371094	-1153.296264648438	49.4468994140625	-311.6932067871094	-1100.010375976562	342.9935302734375	-283.6161499023438	-947.7164306640625	42.81344604492188	-311.6865844726562	-1005.234985351562	51.44636154174805	-360.358154296875	-1045.55517578125	46.63837432861328	-271.9903259277344	-1192.419555664062	40.76573181152344	-370.7406005859375	
88	0.87	-1130.228271484375	973.8761596679688	-407.8334655761719	-1068.855224609375	970.9078979492188	-515.8772583007812	-1112.930419921875	1031.561889648438	-471.4058227539062	-909.1951293945312	1204.61474609375	-387.2000732421875	-1130.056274414062	1137.97216796875	-475.3019714355469	-1092.281005859375	1369.217529296875	-459.9544677734375	-944.8986206054688	1298.584106445312	-402.9620971679688	-1164.621826171875	1246.954711914062	-395.8522644042969	-1081.9365234375	1314.521240234375	-548.8192749023438	-968.004150390625	1363.315551757812	-584.0906982421875	-954.8281860351562	1236.294677734375	-643.135498046875	-933.7587890625	1026.125732421875	-660.4061279296875	-1025.351318359375	1016.65576171875	-624.1329345703125	-860.0752563476562	842.2637329101562	-584.9616088867188	-917.2339477539062	803.4815063476562	-649.78857421875	-915.9463500976562	943.75537109375	-652.39013671875	-860.7291259765625	686.2003784179688	-564.9625244140625	-895.3668212890625	749.095703125	-632.407958984375	-843.880859375	763.4898071289062	-594.8502197265625	-1095.038208007812	1367.074951171875	-301.7973937988281	-1129.50390625	1299.12109375	-252.8614196777344	-1121.701904296875	1031.48486328125	-204.6187286376953	-1163.236938476562	1012.991638183594	-252.7232513427734	-1005.851745605469	834.356201171875	-216.9215545654297	-1087.318603515625	808.6731567382812	-183.2997589111328	-1115.676025390625	977.3817749023438	-196.3039398193359	-999.1627197265625	674.1989135742188	-214.6209259033203	-992.173828125	740.5037841796875	-190.7892303466797	-1062.562255859375	735.9700317382812	-178.6913146972656	-1092.283447265625	1529.739135742188	-373.5025024414062	-914.3163452148438	1590.608764648438	-444.6922302246094	-972.7191162109375	1584.812133789062	-331.0614929199219	-1032.942260742188	1533.338134765625	-521.5435791015625	-916.9094848632812	895.6016845703125	-583.5625	-1090.266235351562	871.0983276367188	-249.9126434326172	-972.8975219726562	914.9190673828125	-262.7461547851562	-866.739501953125	926.9288940429688	-480.6183166503906	-951.2838745117188	473.0164794921875	-561.7168579101562	-918.1659545898438	629.285400390625	-567.6140747070312	-1050.070434570312	48.28706741333008	-587.1297607421875	-989.6610107421875	326.0301818847656	-581.5382080078125	-900.3036499023438	39.67377853393555	-445.1969909667969	-982.2389526367188	46.31850051879883	-452.3418579101562	-946.1651000976562	42.03646469116211	-548.067138671875	-1118.315063476562	49.8932991027832	-549.09375	-1099.379028320312	486.9546203613281	-270.0260925292969	-1077.959838867188	745.2079467773438	-233.4320220947266	-1153.295532226562	49.45329666137695	-311.695556640625	-1099.99658203125	343.0069274902344	-283.6597900390625	-947.718994140625	42.81473541259766	-311.6839294433594	-1005.234191894531	51.44336700439453	-360.3662414550781	-1045.559204101562	46.63780212402344	-271.9885559082031	-1192.418212890625	40.76678085327148	-370.7427673339844	
89	0.88	-1130.167602539062	973.8609619140625	-407.961181640625	-1068.772216796875	970.903564453125	-516.0437622070312	-1112.745727539062	1031.542724609375	-471.595703125	-909.10302734375	1204.634033203125	-387.313720703125	-1129.931884765625	1137.995727539062	-475.4732666015625	-1092.14208984375	1369.229370117188	-460.0935363769531	-944.7747802734375	1298.578125	-403.0803833007812	-1164.48779296875	1246.986450195312	-396.0147094726562	-1081.76904296875	1314.521240234375	-548.9762573242188	-967.8845825195312	1363.352783203125	-584.2017211914062	-954.6585083007812	1236.318969726562	-643.274658203125	-933.5921020507812	1026.148071289062	-660.5352172851562	-1025.200561523438	1016.659851074219	-624.3037719726562	-859.9197387695312	842.2622680664062	-585.1098022460938	-917.221923828125	803.490234375	-649.9594116210938	-915.7818603515625	943.7780151367188	-652.5308227539062	-860.6956176757812	686.1923217773438	-565.116455078125	-895.3294067382812	749.0752563476562	-632.6011352539062	-843.734619140625	763.4273071289062	-595.0194091796875	-1094.945434570312	1367.085083007812	-301.867431640625	-1129.363403320312	1299.128051757812	-253.0044097900391	-1121.614501953125	1031.505249023438	-204.7270660400391	-1163.111083984375	1013.018127441406	-252.9046630859375	-1005.76123046875	834.3524169921875	-217.0915832519531	-1087.289916992188	808.6734619140625	-183.3913879394531	-1115.569213867188	977.390380859375	-196.4544219970703	-999.1123046875	674.1882934570312	-214.7877044677734	-992.1093139648438	740.506591796875	-190.9120178222656	-1062.47509765625	735.9664916992188	-178.8608551025391	-1092.067993164062	1529.786743164062	-373.6325378417969	-914.1067504882812	1590.572875976562	-444.7973327636719	-972.4580688476562	1584.742797851562	-331.1678771972656	-1032.729248046875	1533.357299804688	-521.6766967773438	-916.787841796875	895.6007690429688	-583.6838989257812	-1089.863403320312	870.904296875	-249.9029846191406	-972.8128662109375	914.9149169921875	-262.9342346191406	-866.6669311523438	926.9203491210938	-480.7557983398438	-951.249755859375	473.0078735351562	-561.8209228515625	-918.1066284179688	629.2548828125	-567.7073974609375	-1050.0693359375	48.27931976318359	-587.1323852539062	-989.6654052734375	326.01513671875	-581.62255859375	-900.2982788085938	39.67195892333984	-445.2019653320312	-982.239013671875	46.31905364990234	-452.3446350097656	-946.1669921875	42.03589248657227	-548.0662841796875	-1118.317138671875	49.89328765869141	-549.0936889648438	-1099.34326171875	486.9795837402344	-270.1132507324219	-1077.868530273438	745.213134765625	-233.6015930175781	-1153.29345703125	49.45904922485352	-311.6975402832031	-1099.982177734375	343.0203247070312	-283.707763671875	-947.7203369140625	42.8145866394043	-311.6834716796875	-1005.232116699219	51.43883895874023	-360.371337890625	-1045.563842773438	46.63782501220703	-271.9855651855469	-1192.416015625	40.76637649536133	-370.7461853027344	
90	0.89	-1130.1064453125	973.8447875976562	-408.0984802246094	-1068.702514648438	970.8993530273438	-516.193115234375	-1112.544067382812	1031.530517578125	-471.7793884277344	-909.0224609375	1204.643310546875	-387.4277648925781	-1129.808715820312	1138.0166015625	-475.6400451660156	-1092.001342773438	1369.247314453125	-460.2319946289062	-944.6321411132812	1298.570556640625	-403.2200012207031	-1164.350952148438	1247.020263671875	-396.1809997558594	-1081.589111328125	1314.510009765625	-549.1455078125	-967.7348022460938	1363.385864257812	-584.3228759765625	-954.4779663085938	1236.342895507812	-643.4204711914062	-933.4137573242188	1026.1630859375	-660.677490234375	-1025.03759765625	1016.668029785156	-624.4790649414062	-859.7913818359375	842.2506713867188	-585.2646484375	-917.2147216796875	803.4802856445312	-650.1400756835938	-915.6113891601562	943.8021850585938	-652.677978515625	-860.6705932617188	686.171142578125	-565.2855224609375	-895.2734375	749.0546875	-632.8116455078125	-843.5989990234375	763.3650512695312	-595.187255859375	-1094.840698242188	1367.099975585938	-301.9503479003906	-1129.2099609375	1299.135131835938	-253.1726837158203	-1121.52490234375	1031.526977539062	-204.8489532470703	-1162.973754882812	1013.047180175781	-253.1040344238281	-1005.663635253906	834.3519287109375	-217.2686920166016	-1087.251708984375	808.6768188476562	-183.4948272705078	-1115.464111328125	977.3963623046875	-196.6040649414062	-999.0537719726562	674.174560546875	-214.9623718261719	-992.0407104492188	740.5099487304688	-191.0371856689453	-1062.3779296875	735.961669921875	-179.0381164550781	-1091.848754882812	1529.832275390625	-373.7624816894531	-913.9164428710938	1590.54345703125	-444.8961791992188	-972.203369140625	1584.677856445312	-331.2844848632812	-1032.500366210938	1533.374145507812	-521.8196411132812	-916.6570434570312	895.6109619140625	-583.8222045898438	-1089.849365234375	870.9808959960938	-250.1135559082031	-972.7149047851562	914.909423828125	-263.1401977539062	-866.5672607421875	926.9212646484375	-480.9048156738281	-951.2328491210938	472.9840087890625	-561.9242553710938	-918.0306396484375	629.227294921875	-567.7946166992188	-1050.069091796875	48.27113342285156	-587.1329956054688	-989.6541137695312	326.0005493164062	-581.699462890625	-900.2926635742188	39.66790771484375	-445.2072448730469	-982.23876953125	46.31854248046875	-452.3475646972656	-946.17041015625	42.03535842895508	-548.06396484375	-1118.320922851562	49.89267730712891	-549.09326171875	-1099.306518554688	487.0027465820312	-270.2040405273438	-1077.76953125	745.217041015625	-233.7816009521484	-1153.290161132812	49.46343612670898	-311.6993713378906	-1099.966552734375	343.0342712402344	-283.7593688964844	-947.7205200195312	42.81330490112305	-311.6851196289062	-1005.228759765625	51.43152236938477	-360.3738098144531	-1045.5693359375	46.63865280151367	-271.9811401367188	-1192.412963867188	40.76420211791992	-370.7512512207031	
